<svg width="15" height="17" viewBox="0 0 15 17" fill="none" xmlns="http://www.w3.org/2000/svg">
    <path fill-rule="evenodd" clip-rule="evenodd" d="M8.19714 3.67752C8.40295 4.54081 9.01135 5.25246 9.83213 5.59002C12.0036 6.61413 13.253 8.93502 12.912 11.3116C12.5711 13.6881 10.7197 15.5642 8.34785 15.9365C5.97604 16.3088 3.63882 15.0903 2.58607 12.9326C1.53333 10.7748 2.0114 8.18274 3.76463 6.54252L4.78463 7.49502L5.26464 7.97502L5.60213 7.63752L5.81213 8.78502L4.65713 8.59002L4.99463 8.25252L4.51463 7.77252C3.84248 8.47247 3.45482 9.39749 3.42713 10.3675H4.10963V9.82002L5.05463 10.5025L4.10963 11.185V10.6375L3.42713 10.6375C3.48752 11.598 3.87076 12.5098 4.51463 13.225L4.98713 12.7375L4.64963 12.4L5.80463 12.205L5.60213 13.36L5.26464 13.0225L4.79214 13.5025C5.49019 14.173 6.41222 14.5605 7.37963 14.59V13.9075H6.83213L7.51464 12.955L8.19714 13.9075H7.64963V14.59C8.61009 14.5296 9.52193 14.1464 10.2371 13.5025L9.75714 13.0225L9.41963 13.36L9.22464 12.205L10.3721 12.4075L10.0346 12.745L10.5146 13.225C11.1868 12.5251 11.5744 11.6 11.6021 10.63H10.9196V11.1775L9.97464 10.495L10.9196 9.81252V10.36L11.6021 10.36C11.5418 9.39957 11.1585 8.48773 10.5146 7.77252L10.0496 8.26002L10.3871 8.59752L9.23213 8.79252L9.42713 7.63752L9.76463 7.97502L10.2446 7.50252C9.78563 7.14299 9.2813 6.84543 8.74464 6.61752C8.11395 6.26796 7.59419 5.7482 7.24464 5.11752C7.01415 4.67184 6.87397 4.18502 6.83213 3.68502L5.46713 4.36752L7.51464 0.955017L9.56214 4.36002C9.56214 4.36002 8.26464 3.74502 8.19714 3.67752ZM7.51464 12.355C8.55017 12.355 9.38964 11.5156 9.38964 10.48C9.38964 9.44448 8.55017 8.60502 7.51464 8.60502C6.4791 8.60502 5.63964 9.44448 5.63964 10.48C5.63964 11.5156 6.4791 12.355 7.51464 12.355Z" fill="black"/>
</svg>
